# xmcd
#
# Track frame offsets: 
#        150
#        18389
#        36619
#        58865
#        71440
#        81369
#        101554
#        121111
#        137408
#        157982
#        178942
#        206863
#
# Disc length: 2978 seconds
#
# Revision: 0
# Processed by: cddbd v1.5.2PL0 Copyright (c) Steve Scherf et al.
# Submitted via: ExactAudioCopy v0.99pb5
#
DISCID=a90ba00c
DTITLE=4th time around - A Morning Prayer
DYEAR=2007
DGENRE=Country
TTITLE0=Fall Out
TTITLE1=Master My Master
TTITLE2=What Remains Of Us
TTITLE3=Straight Ahead
TTITLE4=Devil's Grin
TTITLE5=Marlon Brando, Ho Chi Minh and Me
TTITLE6=What You Get Is What You Make Of It
TTITLE7=Postcards On The Wall
TTITLE8=Lamb
TTITLE9=Dressed In New Fancies
TTITLE10=Without You We're Lost Like Words in Babylon
TTITLE11=I Won't Leave
EXTD=
EXTT0=
EXTT1=
EXTT2=
EXTT3=
EXTT4=
EXTT5=
EXTT6=
EXTT7=
EXTT8=
EXTT9=
EXTT10=
EXTT11=
PLAYORDER=
